<mxfile host="app.diagrams.net" modified="2022-03-04T08:48:23.252Z" agent="5.0 (Macintosh; Intel Mac OS X 10_14_6) AppleWebKit/537.36 (KHTML, like Gecko) Chrome/98.0.4758.109 Safari/537.36" etag="NWXO0F89m52-2grxCt70" version="16.0.3" type="github">
  <diagram id="ABhbRu5hAyR7Rn3_rcih" name="Page-1">
    <mxGraphModel dx="1426" dy="850" grid="1" gridSize="10" guides="1" tooltips="1" connect="1" arrows="1" fold="1" page="1" pageScale="1" pageWidth="827" pageHeight="1169" math="0" shadow="0">
      <root>
        <mxCell id="0" />
        <mxCell id="1" parent="0" />
        <mxCell id="lwy3qHEec11jCqDCyXSb-13" style="edgeStyle=orthogonalEdgeStyle;rounded=0;orthogonalLoop=1;jettySize=auto;html=1;entryX=0.5;entryY=0;entryDx=0;entryDy=0;" edge="1" parent="1" source="lwy3qHEec11jCqDCyXSb-1" target="lwy3qHEec11jCqDCyXSb-2">
          <mxGeometry relative="1" as="geometry" />
        </mxCell>
        <mxCell id="lwy3qHEec11jCqDCyXSb-1" value="" style="ellipse;whiteSpace=wrap;html=1;aspect=fixed;" vertex="1" parent="1">
          <mxGeometry x="360" y="90" width="60" height="60" as="geometry" />
        </mxCell>
        <mxCell id="lwy3qHEec11jCqDCyXSb-14" style="edgeStyle=orthogonalEdgeStyle;rounded=0;orthogonalLoop=1;jettySize=auto;html=1;entryX=0.5;entryY=0;entryDx=0;entryDy=0;" edge="1" parent="1" source="lwy3qHEec11jCqDCyXSb-2" target="lwy3qHEec11jCqDCyXSb-3">
          <mxGeometry relative="1" as="geometry" />
        </mxCell>
        <mxCell id="lwy3qHEec11jCqDCyXSb-2" value="路单采集" style="rounded=1;whiteSpace=wrap;html=1;" vertex="1" parent="1">
          <mxGeometry x="330" y="210" width="120" height="60" as="geometry" />
        </mxCell>
        <mxCell id="lwy3qHEec11jCqDCyXSb-11" style="edgeStyle=orthogonalEdgeStyle;rounded=0;orthogonalLoop=1;jettySize=auto;html=1;entryX=0.5;entryY=0;entryDx=0;entryDy=0;" edge="1" parent="1" source="lwy3qHEec11jCqDCyXSb-3" target="lwy3qHEec11jCqDCyXSb-7">
          <mxGeometry relative="1" as="geometry" />
        </mxCell>
        <mxCell id="lwy3qHEec11jCqDCyXSb-12" style="edgeStyle=orthogonalEdgeStyle;rounded=0;orthogonalLoop=1;jettySize=auto;html=1;entryX=0.5;entryY=0;entryDx=0;entryDy=0;" edge="1" parent="1" source="lwy3qHEec11jCqDCyXSb-3" target="lwy3qHEec11jCqDCyXSb-8">
          <mxGeometry relative="1" as="geometry" />
        </mxCell>
        <mxCell id="lwy3qHEec11jCqDCyXSb-3" value="客户账单确认" style="rounded=1;whiteSpace=wrap;html=1;" vertex="1" parent="1">
          <mxGeometry x="330" y="320" width="120" height="60" as="geometry" />
        </mxCell>
        <mxCell id="lwy3qHEec11jCqDCyXSb-4" value="系统结算" style="rounded=1;whiteSpace=wrap;html=1;" vertex="1" parent="1">
          <mxGeometry x="330" y="769" width="120" height="60" as="geometry" />
        </mxCell>
        <mxCell id="lwy3qHEec11jCqDCyXSb-5" value="开票" style="rounded=1;whiteSpace=wrap;html=1;" vertex="1" parent="1">
          <mxGeometry x="330" y="890" width="120" height="60" as="geometry" />
        </mxCell>
        <mxCell id="lwy3qHEec11jCqDCyXSb-6" value="应收帐款" style="rounded=1;whiteSpace=wrap;html=1;" vertex="1" parent="1">
          <mxGeometry x="330" y="1025" width="120" height="60" as="geometry" />
        </mxCell>
        <mxCell id="lwy3qHEec11jCqDCyXSb-17" style="edgeStyle=orthogonalEdgeStyle;rounded=0;orthogonalLoop=1;jettySize=auto;html=1;entryX=0.5;entryY=0;entryDx=0;entryDy=0;" edge="1" parent="1" source="lwy3qHEec11jCqDCyXSb-7" target="lwy3qHEec11jCqDCyXSb-16">
          <mxGeometry relative="1" as="geometry" />
        </mxCell>
        <mxCell id="lwy3qHEec11jCqDCyXSb-7" value="路单确认" style="rounded=0;whiteSpace=wrap;html=1;" vertex="1" parent="1">
          <mxGeometry x="230" y="420" width="100" height="40" as="geometry" />
        </mxCell>
        <mxCell id="lwy3qHEec11jCqDCyXSb-20" style="edgeStyle=orthogonalEdgeStyle;rounded=0;orthogonalLoop=1;jettySize=auto;html=1;entryX=0.5;entryY=0;entryDx=0;entryDy=0;" edge="1" parent="1" source="lwy3qHEec11jCqDCyXSb-8" target="lwy3qHEec11jCqDCyXSb-19">
          <mxGeometry relative="1" as="geometry" />
        </mxCell>
        <mxCell id="lwy3qHEec11jCqDCyXSb-8" value="合同确认" style="rounded=0;whiteSpace=wrap;html=1;" vertex="1" parent="1">
          <mxGeometry x="450" y="420" width="100" height="40" as="geometry" />
        </mxCell>
        <mxCell id="lwy3qHEec11jCqDCyXSb-15" value="" style="rhombus;whiteSpace=wrap;html=1;" vertex="1" parent="1">
          <mxGeometry x="360" y="660" width="60" height="60" as="geometry" />
        </mxCell>
        <mxCell id="lwy3qHEec11jCqDCyXSb-18" style="edgeStyle=orthogonalEdgeStyle;rounded=0;orthogonalLoop=1;jettySize=auto;html=1;entryX=0.5;entryY=0;entryDx=0;entryDy=0;" edge="1" parent="1" source="lwy3qHEec11jCqDCyXSb-16" target="lwy3qHEec11jCqDCyXSb-15">
          <mxGeometry relative="1" as="geometry" />
        </mxCell>
        <mxCell id="lwy3qHEec11jCqDCyXSb-21" value="通过" style="edgeLabel;html=1;align=center;verticalAlign=middle;resizable=0;points=[];" vertex="1" connectable="0" parent="lwy3qHEec11jCqDCyXSb-18">
          <mxGeometry x="-0.6416" y="-2" relative="1" as="geometry">
            <mxPoint x="1" y="1" as="offset" />
          </mxGeometry>
        </mxCell>
        <mxCell id="lwy3qHEec11jCqDCyXSb-24" style="edgeStyle=orthogonalEdgeStyle;rounded=0;orthogonalLoop=1;jettySize=auto;html=1;entryX=0;entryY=0.5;entryDx=0;entryDy=0;" edge="1" parent="1" source="lwy3qHEec11jCqDCyXSb-16" target="lwy3qHEec11jCqDCyXSb-2">
          <mxGeometry relative="1" as="geometry">
            <mxPoint x="140" y="360" as="targetPoint" />
            <Array as="points">
              <mxPoint x="150" y="548" />
              <mxPoint x="150" y="240" />
            </Array>
          </mxGeometry>
        </mxCell>
        <mxCell id="lwy3qHEec11jCqDCyXSb-25" value="不通过" style="edgeLabel;html=1;align=center;verticalAlign=middle;resizable=0;points=[];" vertex="1" connectable="0" parent="lwy3qHEec11jCqDCyXSb-24">
          <mxGeometry x="-0.2562" y="-1" relative="1" as="geometry">
            <mxPoint x="1" as="offset" />
          </mxGeometry>
        </mxCell>
        <mxCell id="lwy3qHEec11jCqDCyXSb-16" value="确认结果" style="rhombus;whiteSpace=wrap;html=1;" vertex="1" parent="1">
          <mxGeometry x="250" y="520" width="60" height="55" as="geometry" />
        </mxCell>
        <mxCell id="lwy3qHEec11jCqDCyXSb-22" style="edgeStyle=orthogonalEdgeStyle;rounded=0;orthogonalLoop=1;jettySize=auto;html=1;" edge="1" parent="1" source="lwy3qHEec11jCqDCyXSb-19" target="lwy3qHEec11jCqDCyXSb-15">
          <mxGeometry relative="1" as="geometry" />
        </mxCell>
        <mxCell id="lwy3qHEec11jCqDCyXSb-23" value="通过" style="edgeLabel;html=1;align=center;verticalAlign=middle;resizable=0;points=[];" vertex="1" connectable="0" parent="lwy3qHEec11jCqDCyXSb-22">
          <mxGeometry x="-0.5273" y="3" relative="1" as="geometry">
            <mxPoint as="offset" />
          </mxGeometry>
        </mxCell>
        <mxCell id="lwy3qHEec11jCqDCyXSb-19" value="确认结果" style="rhombus;whiteSpace=wrap;html=1;" vertex="1" parent="1">
          <mxGeometry x="470" y="520" width="60" height="55" as="geometry" />
        </mxCell>
      </root>
    </mxGraphModel>
  </diagram>
</mxfile>
